<svg width="256" height="256" viewBox="0 0 256 256" fill="none" xmlns="http://www.w3.org/2000/svg">
  <defs>
    <linearGradient id="bg" x1="28" y1="20" x2="220" y2="236" gradientUnits="userSpaceOnUse">
      <stop stop-color="#7B8790"/>
      <stop offset="0.38" stop-color="#39444D"/>
      <stop offset="1" stop-color="#0B1722"/>
    </linearGradient>
    <linearGradient id="shine" x1="56" y1="32" x2="210" y2="150" gradientUnits="userSpaceOnUse">
      <stop stop-color="white" stop-opacity="0.38"/>
      <stop offset="1" stop-color="white" stop-opacity="0"/>
    </linearGradient>
  </defs>
  <rect x="18" y="18" width="220" height="220" rx="40" fill="url(#bg)"/>
  <rect x="22" y="22" width="212" height="212" rx="36" stroke="#1F2B35" stroke-width="6"/>
  <path d="M37 43C79 30 166 31 219 63V28H37V43Z" fill="url(#shine)" opacity="0.65"/>
  <circle cx="204" cy="50" r="10" fill="white" fill-opacity="0.12"/>
  <circle cx="218" cy="66" r="6" fill="white" fill-opacity="0.09"/>
  <circle cx="196" cy="71" r="5" fill="white" fill-opacity="0.08"/>
  <g stroke="#F8F7F3" stroke-width="4.5" stroke-linecap="round" stroke-linejoin="round">
    <path d="M128 53L181 86V167L128 203L75 167V86L128 53Z"/>
    <path d="M128 53V203"/>
    <path d="M75 86L128 119L181 86"/>
    <path d="M75 167L128 136L181 167"/>
    <path d="M94 72L160 72" stroke-dasharray="6 6" opacity="0.6"/>
    <path d="M94 184L160 184" stroke-dasharray="6 6" opacity="0.6"/>
    <path d="M88 78L76 92" opacity="0.6"/>
    <path d="M168 78L180 92" opacity="0.6"/>
    <path d="M88 178L76 164" opacity="0.6"/>
    <path d="M168 178L180 164" opacity="0.6"/>
  </g>
  <text x="90" y="146" fill="#F8F7F3" font-size="42" font-family="Inter, Arial, sans-serif" font-weight="800" text-anchor="middle">B</text>
  <text x="128" y="146" fill="#F8F7F3" font-size="28" font-family="Inter, Arial, sans-serif" font-weight="700" text-anchor="middle">VS</text>
  <text x="166" y="146" fill="#F8F7F3" font-size="42" font-family="Inter, Arial, sans-serif" font-weight="800" text-anchor="middle">B</text>
</svg>
