<svg width="256" height="256" viewBox="0 0 256 256" fill="none" xmlns="http://www.w3.org/2000/svg">
  <defs>
    <linearGradient id="bg" x1="28" y1="20" x2="220" y2="236" gradientUnits="userSpaceOnUse">
      <stop stop-color="#7B8790"/>
      <stop offset="0.38" stop-color="#39444D"/>
      <stop offset="1" stop-color="#0B1722"/>
    </linearGradient>
    <linearGradient id="shine" x1="56" y1="32" x2="210" y2="150" gradientUnits="userSpaceOnUse">
      <stop stop-color="white" stop-opacity="0.38"/>
      <stop offset="1" stop-color="white" stop-opacity="0"/>
    </linearGradient>
    <filter id="shadow" x="12" y="14" width="232" height="232" filterUnits="userSpaceOnUse" color-interpolation-filters="sRGB">
      <feDropShadow dx="0" dy="7" stdDeviation="7" flood-color="#020812" flood-opacity="0.4"/>
    </filter>
  </defs>
  <g filter="url(#shadow)">
    <rect x="18" y="18" width="220" height="220" rx="40" fill="url(#bg)"/>
    <rect x="22" y="22" width="212" height="212" rx="36" stroke="#1F2B35" stroke-width="6"/>
    <path d="M37 43C79 30 166 31 219 63V28H37V43Z" fill="url(#shine)" opacity="0.65"/>
    <circle cx="204" cy="50" r="10" fill="white" fill-opacity="0.12"/>
    <circle cx="218" cy="66" r="6" fill="white" fill-opacity="0.09"/>
    <circle cx="196" cy="71" r="5" fill="white" fill-opacity="0.08"/>
  </g>
  <g stroke="#F8F7F3" stroke-width="4.5" stroke-linecap="round" stroke-linejoin="round">
    <path d="M65 151H191"/>
    <path d="M79 104H177L193 171H63L79 104Z"/>
    <path d="M97 104V171"/>
    <path d="M159 104V171"/>
    <path d="M78 131H178"/>
    <path d="M95 151V131"/>
    <path d="M128 151V131"/>
    <path d="M161 151V131"/>
    <path d="M79 104L64 171"/>
    <path d="M177 104L192 171"/>
    <path d="M102 98H154"/>
    <path d="M108 84L101 98"/>
    <path d="M148 84L155 98"/>
    <path d="M128 80L128 96"/>
    <path d="M110 71L116 84"/>
    <path d="M146 71L140 84"/>
  </g>
  <g fill="#F8F7F3">
    <circle cx="110" cy="69" r="3.6"/>
    <circle cx="128" cy="60" r="3.6"/>
    <circle cx="146" cy="69" r="3.6"/>
    <circle cx="98" cy="80" r="3.6"/>
    <circle cx="158" cy="80" r="3.6"/>
  </g>
</svg>
