<svg width="128" height="128" viewBox="0 0 128 128" fill="none" xmlns="http://www.w3.org/2000/svg">
  <defs><marker id="a" markerWidth="8" markerHeight="8" refX="7" refY="4" orient="auto"><path d="M1 1L7 4L1 7" stroke="#1C4F35" stroke-width="2" fill="none" stroke-linecap="round" stroke-linejoin="round"/></marker></defs>
  <g stroke="#1C4F35" stroke-width="4" stroke-linecap="round"><path d="M35 24C55 14 78 14 96 28" marker-end="url(#a)"/><path d="M103 45C109 64 105 86 91 101" marker-end="url(#a)"/><path d="M77 107C57 112 39 107 25 93" marker-end="url(#a)"/><path d="M22 77C18 59 21 41 34 28" marker-end="url(#a)"/></g>
  <g fill="#1C4F35"><path d="M64 37C75 37 84 46 84 57C84 70 74 80 65 91C63 93 60 93 58 91C49 80 44 70 44 57C44 46 53 37 64 37Z"/><rect x="60" y="88" width="6" height="18" rx="3" transform="rotate(22 60 88)"/></g>
  <g fill="#F2EDE4"><circle cx="58" cy="52" r="2.2"/><circle cx="65" cy="52" r="2.2"/><circle cx="72" cy="52" r="2.2"/><circle cx="54" cy="59" r="2.2"/><circle cx="61" cy="59" r="2.2"/><circle cx="68" cy="59" r="2.2"/><circle cx="75" cy="59" r="2.2"/><circle cx="58" cy="66" r="2.2"/><circle cx="65" cy="66" r="2.2"/><circle cx="72" cy="66" r="2.2"/></g>
</svg>
